<svg xmlns="http://www.w3.org/2000/svg" viewBox="0 0 32 32" role="img" aria-label="Ali Karakoç - Software Developer">
  <defs>
    <linearGradient id="grad" x1="0%" y1="0%" x2="100%" y2="100%">
      <stop offset="0%" stop-color="#f8fafc"/>
      <stop offset="100%" stop-color="#e2e8f0"/>
    </linearGradient>
    <filter id="softShadow" x="-50%" y="-50%" width="200%" height="200%">
      <feDropShadow dx="0" dy="2" stdDeviation="3" flood-color="#64748b" flood-opacity="0.15"/>
    </filter>
  </defs>
  
  <!-- Background rounded square -->
  <rect x="2" y="2" width="28" height="28" rx="8" ry="8" fill="url(#grad)" stroke="#cbd5e1" stroke-width="0.6"/>
  
  <!-- AK Monogram -->
  <g fill="#0f172a" font-family="Inter, -apple-system, BlinkMacSystemFont, sans-serif" font-weight="800" font-size="14" filter="url(#softShadow)" transform="translate(1,-1) scale(1.2)">
    <!-- A -->
    <path d="M7 24 L8.5 20 L11.5 20 L13 24 L14.7 24 L11.6 16 L8.4 16 L5 24 Z M8.1 18.6 L11.9 18.6 L10 15.3 Z"/>
    <!-- K -->
    <path d="M17 16 L17 24 L18.7 24 L18.7 16 Z M18.7 20 L21.9 24 L23.6 24 L20.4 20 L23.6 16 L21.9 16 L18.7 20 Z"/>
  </g>
</svg>
