<svg xmlns="http://www.w3.org/2000/svg" width="1440" height="720" viewBox="0 0 1440 720" role="img" aria-label="Quick Messaging for WhatsApp banner">
  <defs>
    <linearGradient id="g1" x1="0" y1="0" x2="1" y2="1">
      <stop offset="0%" stop-color="#25D366"/>
      <stop offset="100%" stop-color="#128C7E"/>
    </linearGradient>
    <filter id="shadow" x="-20%" y="-20%" width="140%" height="140%">
      <feDropShadow dx="0" dy="8" stdDeviation="12" flood-color="#000" flood-opacity="0.25"/>
    </filter>
  </defs>
  <rect width="1440" height="720" fill="url(#g1)"/>

  <g transform="translate(120,120)">
    <rect x="0" y="0" width="1200" height="480" rx="24" fill="#ffffff" opacity="0.1"/>
    <rect x="24" y="48" width="1152" height="96" rx="16" fill="#ffffff" opacity="0.15"/>
    <rect x="24" y="176" width="840" height="96" rx="16" fill="#ffffff" opacity="0.15"/>
    <rect x="24" y="304" width="680" height="96" rx="16" fill="#ffffff" opacity="0.15"/>
  </g>

  <g transform="translate(140,540)" filter="url(#shadow)">
    <circle cx="0" cy="0" r="44" fill="#ffffff"/>
    <path fill="#25D366" d="M19.05-7.9c-.6-1.34-1.18-1.38-1.73-1.41-.45-.02-.97-.02-1.49-.02-.52 0-1.36.2-2.07 1.02-.71.81-2.72 2.66-2.72 6.49 0 3.83 2.79 7.53 3.18 8.05.39.52 5.36 8.59 13.2 11.7 6.53 2.57 7.86 2.06 9.28 1.93 1.42-.13 4.58-1.87 5.23-3.68.65-1.81.65-3.36.45-3.68-.19-.32-.71-.52-1.49-.93-.78-.39-4.58-2.25-5.29-2.5-.71-.26-1.23-.39-1.75.39-.52.78-2.01 2.49-2.47 3-.45.52-.9.58-1.68.19-.78-.39-3.3-1.22-6.28-3.89-2.32-2.06-3.89-4.6-4.35-5.37-.45-.78-.05-1.19.34-1.58.35-.35.78-.9 1.17-1.35.39-.45.52-.78.78-1.3.26-.52.13-.97-.06-1.35-.19-.39-1.68-4.1-2.3-5.61z" transform="translate(0,0) scale(0.9)"/>
  </g>

  <text x="720" y="320" text-anchor="middle" fill="#FFFFFF" font-family="Inter,Segoe UI,Roboto,Helvetica,Arial,sans-serif" font-size="64" font-weight="700">
    Quick Messaging for WhatsApp
  </text>
  <text x="720" y="380" text-anchor="middle" fill="#E6FFF4" font-family="Inter,Segoe UI,Roboto,Helvetica,Arial,sans-serif" font-size="28" font-weight="500">
    WhatsApp Web'de kişi eklemeden hızlı mesajlaşma
  </text>
</svg>


